<mxfile host="app.diagrams.net" modified="2023-04-07T18:34:05.783Z" agent="Mozilla/5.0 (X11; CrOS x86_64 14541.0.0) AppleWebKit/537.36 (KHTML, like Gecko) Chrome/112.0.0.0 Safari/537.36" version="21.1.5" etag="ePyAOuwOy02TkK85yBFS" type="github">
  <diagram name="Page-1" id="FJaoBzC449zbpMDl4DMY">
    <mxGraphModel>
      <root>
        <mxCell id="0" />
        <mxCell id="1" parent="0" />
      </root>
    </mxGraphModel>
  </diagram>
</mxfile>
